<svg id="Layer_1" enable-background="new 0 0 128 128" height="512" viewBox="0 0 128 128" width="512" xmlns="http://www.w3.org/2000/svg"><g><path d="m66.751 7.84c-.19-.216-.463-.34-.751-.34h-.001c-.288 0-.562.125-.751.342-1.719 1.967-42.098 48.461-42.098 73.808 0 23.628 19.223 42.851 42.851 42.851s42.851-19.223 42.851-42.851c-.001-25.622-40.382-71.855-42.101-73.81z" fill="#e6e7e8"/><g><g><g><path d="m103.85 77.65c0 23.113-18.737 41.85-41.85 41.85s-41.85-18.737-41.85-41.85c0-25.263 41.85-73.15 41.85-73.15s41.85 47.61 41.85 73.15z" fill="#fa759e"/></g><g fill="#fff"><circle cx="88.154" cy="101.492" r="2.207"/><path d="m91.813 97.74c-.36 0-.726-.098-1.055-.302-.938-.583-1.225-1.816-.642-2.755 3.952-6.354 5.329-14.475 4.093-24.136-.141-1.096.634-2.098 1.729-2.237 1.086-.147 2.098.634 2.237 1.729 1.356 10.599-.212 19.601-4.663 26.757-.378.609-1.031.944-1.699.944z"/></g></g><g><g><g><g><g><path d="m74.42 65.707h-19.84c-.828 0-1.5-.672-1.5-1.5v-19.841c0-.828.672-1.5 1.5-1.5h19.84c.828 0 1.5.672 1.5 1.5v19.841c0 .828-.671 1.5-1.5 1.5z" fill="#d4fbff"/><path d="m74.42 42.866h-3c.828 0 1.5.672 1.5 1.5v19.841c0 .828-.672 1.5-1.5 1.5h3c.828 0 1.5-.672 1.5-1.5v-19.841c0-.829-.671-1.5-1.5-1.5z" fill="#fff"/></g></g></g><g><path d="m63 88.547h-19.841c-.828 0-1.5-.672-1.5-1.5v-19.84c0-.828.672-1.5 1.5-1.5h19.841c.828 0 1.5.672 1.5 1.5v19.841c0 .828-.672 1.499-1.5 1.499z" fill="#d4fbff"/><g><g><g><path d="m85.841 88.547h-19.841c-.828 0-1.5-.672-1.5-1.5v-19.84c0-.828.672-1.5 1.5-1.5h19.841c.828 0 1.5.672 1.5 1.5v19.841c0 .828-.672 1.499-1.5 1.499z" fill="#d4fbff"/><g fill="#3a2c60"><path d="m41.657 31.761c.316 0 .627-.149.821-.429 1.804-2.588 3.725-5.253 5.709-7.92.33-.442.238-1.069-.205-1.398-.444-.33-1.07-.237-1.399.205-1.997 2.684-3.93 5.365-5.746 7.971-.316.453-.205 1.076.249 1.392.175.12.374.179.571.179z"/><path d="m62.751 3.84c-.19-.216-.463-.34-.751-.34h-.001c-.288 0-.562.125-.751.342-.052.058-5.212 5.974-11.807 14.592-.336.438-.252 1.065.186 1.401s1.066.254 1.402-.187c5.09-6.649 9.315-11.677 10.973-13.617 5.633 6.577 40.849 48.621 40.849 71.618 0 22.525-18.325 40.851-40.851 40.851-22.525 0-40.851-18.325-40.851-40.851 0-9.555 6.436-24.196 18.611-42.342.308-.459.185-1.08-.273-1.388-.459-.31-1.081-.186-1.388.272-12.574 18.741-18.95 33.362-18.95 43.457 0 23.628 19.223 42.851 42.851 42.851s42.851-19.223 42.851-42.851c0-25.62-40.381-71.853-42.1-73.808z"/><circle cx="57.178" cy="46.232" r="1.628"/><path d="m57.178 49.489c-.899 0-1.628.729-1.628 1.628s.729 1.628 1.628 1.628 1.628-.729 1.628-1.628c.001-.899-.728-1.628-1.628-1.628z"/><path d="m61.655 46.232c-.899 0-1.628.729-1.628 1.628s.729 1.628 1.628 1.628 1.628-.729 1.628-1.628-.728-1.628-1.628-1.628z"/><path d="m43.159 89.547h19.841c.565 0 1.081-.195 1.5-.513.419.317.935.513 1.5.513h19.841c1.379 0 2.5-1.121 2.5-2.5v-19.841c0-1.379-1.121-2.5-2.5-2.5h-8.971c.033-.162.051-.329.051-.5v-19.84c0-1.379-1.121-2.5-2.5-2.5h-19.841c-1.378 0-2.5 1.121-2.5 2.5v19.84c0 .171.018.338.051.5h-8.971c-1.378 0-2.5 1.121-2.5 2.5v19.841c-.001 1.379 1.121 2.5 2.499 2.5zm43.182-22.341v19.841c0 .275-.225.5-.5.5h-19.841c-.275 0-.5-.225-.5-.5v-19.841c0-.275.225-.5.5-.5h19.841c.275 0 .5.225.5.5zm-32.261-3v-19.84c0-.275.224-.5.5-.5h19.84c.275 0 .5.225.5.5v19.84c0 .275-.225.5-.5.5h-8.42-3-8.42c-.276 0-.5-.225-.5-.5zm-11.421 3c0-.275.224-.5.5-.5h19.841c.276 0 .5.225.5.5v19.841c0 .275-.224.5-.5.5h-19.841c-.276 0-.5-.225-.5-.5z"/><path d="m45.758 70.701c.899 0 1.628-.729 1.628-1.628s-.729-1.628-1.628-1.628-1.628.729-1.628 1.628.729 1.628 1.628 1.628z"/><path d="m45.758 75.586c.899 0 1.628-.729 1.628-1.628s-.729-1.628-1.628-1.628-1.628.729-1.628 1.628.729 1.628 1.628 1.628z"/><path d="m50.235 72.329c.899 0 1.628-.729 1.628-1.628s-.729-1.628-1.628-1.628-1.628.729-1.628 1.628.729 1.628 1.628 1.628z"/><path d="m68.599 67.444c-.899 0-1.628.729-1.628 1.628s.729 1.628 1.628 1.628 1.628-.729 1.628-1.628-.729-1.628-1.628-1.628z"/><path d="m68.599 72.329c-.899 0-1.628.729-1.628 1.628s.729 1.628 1.628 1.628 1.628-.729 1.628-1.628-.729-1.628-1.628-1.628z"/><path d="m73.076 69.072c-.899 0-1.628.729-1.628 1.628s.729 1.628 1.628 1.628 1.628-.729 1.628-1.628c0-.898-.729-1.628-1.628-1.628z"/></g></g></g></g></g></g></g></g></g></svg>